<?xml version="1.0" encoding="utf-8"?>
<!-- Generator: Adobe Illustrator 18.0.0, SVG Export Plug-In . SVG Version: 6.00 Build 0)  -->
<!DOCTYPE svg PUBLIC "-//W3C//DTD SVG 1.1//EN" "http://www.w3.org/Graphics/SVG/1.1/DTD/svg11.dtd">
<svg version="1.1" id="Capa_1" xmlns="http://www.w3.org/2000/svg" xmlns:xlink="http://www.w3.org/1999/xlink" x="0px" y="0px"
	 viewBox="0 0 25.7 25.7" enable-background="new 0 0 25.7 25.7" xml:space="preserve">
<g>
	<g>
		<path fill="#409EC2" d="M24.4,0.6L0.7,13c-1,0.5-0.9,1.3,0.1,1.7l3,1.2c1,0.4,2.6,0.2,3.4-0.5L20.4,5c0.9-0.7,1-0.6,0.2,0.2
			L10.2,16.4c-0.8,0.8-0.5,1.8,0.5,2.2l0.4,0.1c1,0.4,2.7,1.1,3.7,1.5l3.4,1.4c1,0.4,1.9,0.8,1.9,0.8c0,0,0,0,0,0
			c0,0,0.2-0.9,0.5-1.9l5.1-18.8C25.9,0.5,25.4,0.1,24.4,0.6z"/>
		<path fill="#409EC2" d="M10.3,19.8l-2.3-1c-1-0.4-1.5,0.1-1.1,1.1c0,0,2.2,5.2,2.1,5.4c-0.1,0.2,2.1-3.1,2.1-3.1
			C11.7,21.3,11.3,20.2,10.3,19.8z"/>
	</g>
</g>
</svg>
