<?xml version="1.0" encoding="utf-8"?>
<!-- Generator: Adobe Illustrator 18.0.0, SVG Export Plug-In . SVG Version: 6.00 Build 0)  -->
<!DOCTYPE svg PUBLIC "-//W3C//DTD SVG 1.1//EN" "http://www.w3.org/Graphics/SVG/1.1/DTD/svg11.dtd">
<svg version="1.1" id="Capa_1" xmlns="http://www.w3.org/2000/svg" xmlns:xlink="http://www.w3.org/1999/xlink" x="0px" y="0px"
	 viewBox="0 0 1024 1024" enable-background="new 0 0 1024 1024" xml:space="preserve">
<g>
	<g>
		<path fill="#07BC4C" d="M512.1,0h-0.3C229.6,0,0,229.6,0,512c0,112,36.1,215.8,97.5,300.1l-63.8,190.2l196.8-62.9
			c81,53.6,177.5,84.6,281.7,84.6c282.3,0,511.9-229.7,511.9-512S794.4,0,512.1,0z M810,723c-12.4,34.9-61.4,63.8-100.5,72.3
			c-26.8,5.7-61.7,10.2-179.3-38.5c-150.5-62.3-247.4-215.2-254.9-225.2c-7.2-9.9-60.8-81-60.8-154.4s37.3-109.2,52.4-124.6
			c12.4-12.6,32.8-18.4,52.4-18.4c6.3,0,12,0.3,17.2,0.6c15,0.6,22.6,1.5,32.5,25.3c12.4,29.8,42.4,103.2,46,110.8
			c3.6,7.6,7.3,17.8,2.2,27.7c-4.8,10.2-9,14.8-16.6,23.5s-14.7,15.4-22.3,24.7c-6.9,8.1-14.7,16.8-6,31.9
			c8.7,14.7,38.8,63.8,83.1,103.2c57.2,50.9,103.5,67.1,120.1,74c12.4,5.1,27.1,3.9,36.1-5.7c11.5-12.4,25.6-32.8,40-53
			c10.2-14.5,23.2-16.3,36.7-11.1c13.8,4.8,87,41,102,48.4c15,7.6,25,11.1,28.6,17.5C822.4,658.3,822.4,688.1,810,723z"/>
	</g>
</g>
</svg>
