<?xml version="1.0" encoding="utf-8"?>
<!-- Generator: Adobe Illustrator 18.0.0, SVG Export Plug-In . SVG Version: 6.00 Build 0)  -->
<!DOCTYPE svg PUBLIC "-//W3C//DTD SVG 1.1//EN" "http://www.w3.org/Graphics/SVG/1.1/DTD/svg11.dtd">
<svg version="1.1" id="Camada_1" xmlns="http://www.w3.org/2000/svg" xmlns:xlink="http://www.w3.org/1999/xlink" x="0px" y="0px"
	 viewBox="375.5 0 616.1 500" enable-background="new 375.5 0 616.1 500" xml:space="preserve">
<path fill="#3A98B5" d="M619.8,405.5c-1.4,1.3-2.6,2.5-4,3.8c-19.5,16.9-41.6,25.3-66.4,25.3c-36.3,0-65.6-16.6-87.8-49.8
	c-15.3-23.2-23-48.7-23-76.7c0-41.6,14.7-75.3,44.2-101.1c19.5-16.9,41.6-25.3,66.4-25.3c27.5,0,51,9.6,70.4,28.7v-75.8
	c-21.9-10.7-45.4-16.1-70.4-16.1c-50.6,0-93,20.3-127.3,60.9c-31,36.2-46.5,79.2-46.5,128.7c0,58.5,20.2,106.4,60.9,143.9
	c32.7,30.5,70.4,45.8,113,45.8c25.3-0.3,48.7-5.7,70.4-16.3V405.5L619.8,405.5z"/>
<polygon fill="#3A98B5" points="792.5,308 934.7,172.9 991.6,118.4 900,118.4 890.5,127.1 762.1,249.7 762.1,366.5 890.5,489 
	900,497.7 991.6,497.7 934.7,443.2 "/>
<polygon fill="#3A98B5" points="723,263.4 723,0 659.7,0 659.7,497.7 723,497.7 723,370.1 722.9,370.1 722.9,263.4 "/>
</svg>
